<svg width="32" height="32" viewBox="0 0 32 32" fill="none" xmlns="http://www.w3.org/2000/svg">
<path d="M7.68375 22.6667H26.6667V6.66667H5.33332V24.5135L7.68375 22.6667ZM8.60606 25.3333L2.66666 30V5.33333C2.66666 4.59696 3.26362 4 3.99999 4H28C28.7364 4 29.3333 4.59696 29.3333 5.33333V24C29.3333 24.7364 28.7364 25.3333 28 25.3333H8.60606ZM14.6667 18.6667H17.3333V21.3333H14.6667V18.6667ZM11.4231 11.7513C11.8485 9.61225 13.736 8 16 8C18.5773 8 20.6667 10.0893 20.6667 12.6667C20.6667 15.244 18.5773 17.3333 16 17.3333H14.6667V14.6667H16C17.1045 14.6667 18 13.7712 18 12.6667C18 11.5621 17.1045 10.6667 16 10.6667C15.0297 10.6667 14.2208 11.3576 14.0384 12.2744L11.4231 11.7513Z" fill="white"/>
</svg>
